<svg xmlns="http://www.w3.org/2000/svg" viewBox="0 0 124 24" ><path d="M5.857 18.708q2.457 0 4.07-1.08t1.613-3.144q-.124-2.783-4.144-4.173l-1.44-.597q-.472-.149-.67-.298a.45.45 0 0 1-.198-.373q0-.62.819-.62 1.017 0 1.513 1.043l3.698-1.044q-1.34-3.33-5.162-3.329-2.283 0-3.797 1.193Q.645 7.478.645 9.39q0 .596.174 1.106t.521.894.67.671.82.534q.495.249.756.36.261.112.707.261l.422.15 1.49.546q.546.199.707.335a.45.45 0 0 1 .16.36q0 .647-1.215.647-1.787 0-2.134-1.59L0 14.509q.695 4.2 5.857 4.2zm11.636 0q2.457 0 3.623-1.888v1.615h5.112V5.366h-5.112v7.156q0 2.21-1.514 2.21-1.539 0-1.539-2.21V5.366h-5.112v7.653q0 5.69 4.542 5.69zm16.103-.273V11.28q0-2.212 1.513-2.212 1.54 0 1.54 2.212v7.155h5.111v-7.652q0-5.69-4.541-5.69-2.457 0-3.623 1.888V5.366h-5.113v13.069zm15.383 0V11.28q0-2.212 1.514-2.212 1.538 0 1.538 2.212v7.155h5.113v-7.652q0-5.69-4.542-5.69-2.457 0-3.623 1.888V5.366h-5.113v13.069zM64.958 24l8.289-18.634H67.91l-2.532 6.684-2.258-6.684h-5.584l5.435 11.802L59.944 24zm13.67-5.292q2.457 0 4.07-1.08t1.614-3.144q-.125-2.783-4.145-4.173l-1.44-.597q-.47-.149-.67-.298a.45.45 0 0 1-.198-.373q0-.62.819-.62 1.017 0 1.514 1.043l3.698-1.044q-1.34-3.33-5.162-3.329-2.283 0-3.797 1.193t-1.514 3.105q0 .597.173 1.106.174.51.522.894.347.385.67.671t.819.534.757.36q.26.113.707.261l.422.15 1.489.546q.546.199.707.335a.45.45 0 0 1 .161.36q0 .647-1.216.647-1.785 0-2.134-1.59l-3.723.844q.696 4.2 5.857 4.2zm9.8-14.137q1.365 0 2.11-.646.743-.645.744-1.64 0-1.018-.72-1.651-.72-.635-2.134-.634-1.415 0-2.135.634-.72.633-.72 1.652 0 .993.745 1.64.745.645 2.11.645m2.556 13.864V5.366H85.87v13.069zm7.74.273q2.605 0 3.722-1.888v1.615h5.112V.472h-5.112v6.534q-1.117-1.913-3.723-1.913-2.63 0-4.38 1.926-1.75 1.924-1.75 4.882 0 2.956 1.75 4.882t4.38 1.925zm1.39-3.9q-1.093 0-1.75-.82-.658-.82-.658-2.087t.645-2.087q.67-.82 1.762-.82c1.092 0 1.311.273 1.75.82q.657.82.657 2.087 0 1.266-.657 2.087-.658.82-1.75.82zm16.698 3.9q3.896 0 6.08-2.26l-2.11-2.833q-1.563 1.267-3.524 1.267-1.488 0-2.42-.67-.93-.672-.93-1.293h9.604q.124-.447.124-1.167 0-3.08-2.022-4.87-2.023-1.79-5.175-1.789-3.375 0-5.335 2.013t-1.961 4.844q0 2.907 2.072 4.833 2.073 1.925 5.597 1.925m2.208-8.149h-5.112q.05-.919.794-1.404t1.762-.484q1.017 0 1.762.497a1.7 1.7 0 0 1 .794 1.391"/></svg>